<?xml version="1.0" encoding="utf-8"?>
<!-- Generator: Adobe Illustrator 24.3.0, SVG Export Plug-In . SVG Version: 6.00 Build 0)  -->
<svg version="1.1" id="Layer_1" xmlns="http://www.w3.org/2000/svg" xmlns:xlink="http://www.w3.org/1999/xlink" x="0px" y="0px"
	 viewBox="0 0 457.936 262.698" style="enable-background:new 0 0 457.936 262.698;" xml:space="preserve">
<g>
	<polygon style="fill:#FFFFFF;" points="205.227,75.806 228.849,52.184 252.471,75.806 265.016,75.806 228.849,39.639 
		192.681,75.806 	"/>
	<g>
		<path style="fill:#FFFFFF;" d="M135.514,145.868V98.643h14.469c15.457,0,23.021,7.76,23.021,22.955
			c0,15.851-8.419,24.27-23.941,24.27H135.514z M149.655,137.975c9.866,0,14.273-5.591,14.273-16.181
			c0-10.129-4.275-15.259-13.353-15.259h-5.985v31.44H149.655z"/>
		<path style="fill:#FFFFFF;" d="M190.043,145.868V98.643h30.518v7.629h-21.441v11.576h15.324v7.366h-15.324v13.024h22.166v7.629
			H190.043z"/>
		<path style="fill:#FFFFFF;" d="M241.348,145.868V98.643h31.176v7.629h-22.1v11.576h15.918v7.366h-15.918v20.653H241.348z"/>
		<path style="fill:#FFFFFF;" d="M297.914,145.868v-18.68l-14.865-28.544h9.8l9.537,19.666h0.131l10.194-19.666h9.472
			l-15.193,28.544v18.68H297.914z"/>
	</g>
	<g>
		<path style="fill:#FFFFFF;" d="M93.002,215.932v-4.34h-0.132c-3.091,3.616-6.972,5.13-11.904,5.13
			c-12.102,0-18.352-9.406-18.352-24.6c0-15.391,7.301-24.204,19.666-24.204c9.341,0,15.128,4.275,17.431,14.01l-8.223,1.578
			c-1.645-6.05-4.736-8.089-9.209-8.089c-6.511,0-10.588,5.919-10.588,16.771c0,11.051,3.287,17.234,11.115,17.234
			c5.789,0,9.472-3.42,9.472-9.078c0-0.394,0-0.788-0.065-1.314h-9.406v-6.578h17.364v23.482H93.002z"/>
		<path style="fill:#FFFFFF;" d="M147.531,215.932l-8.617-18.942h-8.813v18.942h-9.076v-47.225h16.114
			c12.496,0,18.35,4.603,18.35,13.614c0,6.183-3.222,10.129-8.221,12.169l10.327,21.441H147.531z M137.204,189.622
			c3.42,0,9.143-0.657,9.143-6.709c0-5.854-4.736-6.577-8.682-6.577h-7.564v13.286H137.204z"/>
		<path style="fill:#FFFFFF;" d="M203.308,215.932l-3.422-12.431h-15.259l-3.42,12.431h-9.143l14.208-47.225h12.3l14.273,47.225
			H203.308z M186.734,195.937h11.049l-5.46-19.733h-0.131L186.734,195.937z"/>
		<path style="fill:#FFFFFF;" d="M237.288,215.932l-14.602-47.225h9.867l9.931,36.108h0.131l10.986-36.108h9.668l-15.457,47.225
			H237.288z"/>
		<path style="fill:#FFFFFF;" d="M281.688,215.932v-47.225h9.076v47.225H281.688z"/>
		<path style="fill:#FFFFFF;" d="M323.323,215.932v-39.595h-12.759v-7.629h34.662v7.629h-12.825v39.595H323.323z"/>
		<path style="fill:#FFFFFF;" d="M370.815,215.932v-18.68l-14.865-28.544h9.8l9.537,19.666h0.131l10.194-19.666h9.472
			l-15.193,28.544v18.68H370.815z"/>
	</g>
</g>
<g>
</g>
<g>
</g>
<g>
</g>
<g>
</g>
<g>
</g>
<g>
</g>
</svg>
